<svg width="238" height="237" viewBox="0 0 238 237" fill="none" xmlns="http://www.w3.org/2000/svg">
<path d="M119 217.25C116.696 217.25 114.721 216.592 113.075 215.275C111.429 213.959 110.195 212.23 109.372 210.091C106.245 200.874 102.295 192.234 97.5219 184.169C92.9136 176.104 86.4125 166.641 78.0188 155.778C69.625 144.916 62.7948 134.547 57.5281 124.672C52.4261 114.797 49.875 102.865 49.875 88.8752C49.875 69.619 56.5406 53.3252 69.8719 39.994C83.3677 26.4982 99.7438 19.7502 119 19.7502C138.256 19.7502 154.55 26.4982 167.881 39.994C181.377 53.3252 188.125 69.619 188.125 88.8752C188.125 103.852 185.245 116.361 179.484 126.4C173.889 136.275 167.388 146.068 159.981 155.778C151.094 167.628 144.346 177.503 139.738 185.403C135.294 193.139 131.591 201.368 128.628 210.091C127.805 212.395 126.489 214.205 124.678 215.522C123.032 216.674 121.14 217.25 119 217.25ZM119 113.563C125.913 113.563 131.755 111.176 136.528 106.403C141.301 101.63 143.688 95.7877 143.688 88.8752C143.688 81.9627 141.301 76.12 136.528 71.3471C131.755 66.5742 125.913 64.1877 119 64.1877C112.088 64.1877 106.245 66.5742 101.472 71.3471C96.699 76.12 94.3125 81.9627 94.3125 88.8752C94.3125 95.7877 96.699 101.63 101.472 106.403C106.245 111.176 112.088 113.563 119 113.563Z" fill="white"/>
</svg>
